<svg width="135" height="150" fill="none" xmlns="http://www.w3.org/2000/svg"><path d="M106.906 17.299H4.367a4.395 4.395 0 00-4.394 4.394v92.871a4.395 4.395 0 004.394 4.395h102.539a4.395 4.395 0 004.395-4.395v-92.87a4.395 4.395 0 00-4.395-4.395z" fill="#ECF9FD"/><path d="M106.906 17.299h-50.83v101.66h50.83a4.395 4.395 0 004.395-4.395v-92.87a4.395 4.395 0 00-4.395-4.395z" fill="#D9F3FC"/><path d="M70.285 96.986H26.34a4.395 4.395 0 010-8.789h43.945a4.395 4.395 0 010 8.79z" fill="#4E6BA6"/><path d="M70.285 88.197H56.076v8.79h14.209a4.395 4.395 0 000-8.79z" fill="#28487A"/><path d="M84.933 79.408H26.34a4.395 4.395 0 010-8.79h58.593a4.395 4.395 0 010 8.79z" fill="#4E6BA6"/><path d="M84.933 70.619H56.076v8.789h28.857a4.395 4.395 0 000-8.79z" fill="#28487A"/><path d="M84.933 34.877H26.34a4.395 4.395 0 00-4.395 4.394v17.871a4.395 4.395 0 004.395 4.395h58.593a4.395 4.395 0 004.395-4.395v-17.87a4.395 4.395 0 00-4.395-4.395z" fill="#F37"/><path d="M84.933 34.877H56.076v26.66h28.857a4.395 4.395 0 004.395-4.395v-17.87a4.395 4.395 0 00-4.395-4.395z" fill="#CC295F"/><path d="M89.328-.28H4.368A4.395 4.395 0 00-.028 4.115v17.578h93.75V4.115A4.395 4.395 0 0089.328-.28z" fill="#8DC2EB"/><path d="M89.328-.28H56.076v21.973h37.646V4.115A4.395 4.395 0 0089.328-.28z" fill="#5E9FF6"/><path d="M106.906-.28H89.328v21.973h21.973V4.115a4.395 4.395 0 00-4.395-4.395z" fill="#3D6DEF"/><path d="M131.463 80.278a13.096 13.096 0 00-9.322-3.862 13.094 13.094 0 00-9.322 3.862L80.885 112.21c-5.14 5.14-5.14 13.504 0 18.644 2.49 2.49 5.8 3.862 9.322 3.862 3.521 0 6.832-1.372 9.322-3.862l31.933-31.933a13.095 13.095 0 003.862-9.322c0-3.521-1.371-6.833-3.861-9.322z" fill="#FFE470"/><path d="M80.885 130.855c2.49 2.49 5.8 3.862 9.322 3.862 3.521 0 6.832-1.372 9.322-3.862l31.933-31.933a13.099 13.099 0 003.862-9.323 13.1 13.1 0 00-3.861-9.321l-50.578 50.577z" fill="#FABE2C"/><path d="M83.992 105.775c-5.773 0-11.162 2.323-15.174 6.541-3.663 3.85-6.066 9.143-6.767 14.901-.94 7.743-5.386 15.908-5.428 15.986a4.394 4.394 0 003.848 6.517h23.521c12.116 0 21.973-9.857 21.973-21.973 0-12.115-9.857-21.972-21.973-21.972z" fill="#F37"/><path d="M62.02 149.721h21.972c12.116 0 21.973-9.857 21.973-21.973 0-6.058-2.464-11.551-6.443-15.53L62.02 149.721z" fill="#CC295F"/></svg>