<svg width="163" height="148" fill="none" xmlns="http://www.w3.org/2000/svg"><path d="M82.674 107.814H52.967c-2.734 0-4.951 2.204-4.951 4.922v26.25c0 2.718 2.217 4.922 4.95 4.922h29.708c2.734 0 4.951-2.204 4.951-4.922v-26.25c0-2.718-2.217-4.922-4.951-4.922z" fill="#4E6BA6"/><path d="M82.674 107.814H67.82v36.094h14.854c2.734 0 4.951-2.204 4.951-4.922v-26.25c0-2.718-2.217-4.922-4.951-4.922z" fill="#28487A"/><path d="M92.576 147.189H43.065c-2.735 0-4.952-2.203-4.952-4.922 0-2.718 2.217-4.922 4.952-4.922h49.511c2.735 0 4.952 2.204 4.952 4.922 0 2.719-2.217 4.922-4.952 4.922z" fill="#ECF9FD"/><path d="M92.576 137.345H67.82v9.844h24.756c2.735 0 4.952-2.203 4.952-4.922 0-2.718-2.217-4.922-4.952-4.922z" fill="#D9F3FC"/><path d="M137.467 78.283H-1.826c-2.734 0-4.951 2.204-4.951 4.922v29.531c0 2.718 2.217 4.922 4.95 4.922h139.294c2.734 0 4.951-2.204 4.951-4.922V83.205c0-2.718-2.217-4.922-4.951-4.922z" fill="#ECF9FD"/><path d="M137.467 78.283H67.82v39.375h69.647c2.734 0 4.951-2.204 4.951-4.922V83.205c0-2.718-2.217-4.922-4.951-4.922z" fill="#D9F3FC"/><path d="M137.467-3.748H-1.826c-2.734 0-4.951 2.203-4.951 4.922v82.03h149.195V1.175c0-2.719-2.217-4.922-4.951-4.922z" fill="#4E6BA6"/><path d="M137.467-3.748H67.82v86.953h74.598V1.174c0-2.719-2.217-4.922-4.951-4.922z" fill="#28487A"/><path d="M157.272 58.596H107.76c-2.734 0-4.951 2.203-4.951 4.921v78.75c0 2.719 2.217 4.922 4.951 4.922h49.512c2.734 0 4.951-2.203 4.951-4.922v-78.75c0-2.718-2.217-4.922-4.951-4.922z" fill="#ECF9FD"/><path d="M157.272 58.596h-24.756v88.593h24.756c2.734 0 4.951-2.203 4.951-4.922v-78.75c0-2.718-2.217-4.922-4.951-4.922z" fill="#D9F3FC"/><path d="M132.516 127.502c2.734 0 4.951-2.204 4.951-4.922 0-2.718-2.217-4.922-4.951-4.922-2.735 0-4.951 2.204-4.951 4.922 0 2.718 2.216 4.922 4.951 4.922z" fill="#00DD80"/><path d="M132.516 117.658v9.844c2.734 0 4.951-2.204 4.951-4.922 0-2.718-2.217-4.922-4.951-4.922z" fill="#00AA95"/></svg>