<svg width="148" height="146" fill="none" xmlns="http://www.w3.org/2000/svg"><path d="M2.395 22.367A4.395 4.395 0 01-2 17.973V.395A4.395 4.395 0 012.395-4h17.578a4.395 4.395 0 010 8.79H6.789v13.183a4.395 4.395 0 01-4.394 4.394zM19.973 146H2.395A4.395 4.395 0 01-2 141.605v-17.578a4.394 4.394 0 018.79 0v13.184h13.183a4.395 4.395 0 010 8.789z" fill="#4E6BA6"/><path d="M143.605 146h-17.578a4.395 4.395 0 010-8.789h13.184v-13.184a4.394 4.394 0 018.789 0v17.578a4.395 4.395 0 01-4.395 4.395zm0-123.633a4.395 4.395 0 01-4.394-4.394V4.789h-13.184a4.394 4.394 0 010-8.789h17.578A4.395 4.395 0 01148 .395v17.578a4.395 4.395 0 01-4.395 4.394z" fill="#28487A"/><path d="M119.875 22.648h-93.75a4.395 4.395 0 00-4.395 4.395v30.761a4.395 4.395 0 008.79 0V53.41a4.4 4.4 0 014.394-4.395h24.902v61.548h-4.394a4.394 4.394 0 100 8.789h35.156a4.395 4.395 0 000-8.789h-4.394V49.015h24.902a4.4 4.4 0 014.394 4.395v4.394a4.395 4.395 0 008.79 0V27.043a4.395 4.395 0 00-4.395-4.395z" fill="#8DC2EB"/><path d="M119.875 22.648H73v96.704h17.578a4.395 4.395 0 000-8.789h-4.394V49.015h24.902a4.4 4.4 0 014.394 4.395v4.394a4.395 4.395 0 008.79 0V27.043a4.395 4.395 0 00-4.395-4.395z" fill="#5E9FF6"/></svg>