<svg width="10" height="28" fill="none" xmlns="http://www.w3.org/2000/svg"><path d="M5.288 10.152c-1.312 0-2.416-.448-3.312-1.344C1.08 7.912.632 6.792.632 5.448c0-1.376.448-2.48 1.344-3.312.896-.864 2-1.296 3.312-1.296C6.6.84 7.704 1.272 8.6 2.136c.896.832 1.344 1.936 1.344 3.312 0 1.344-.448 2.464-1.344 3.36-.896.896-2 1.344-3.312 1.344zm0 17.232c-1.312 0-2.416-.448-3.312-1.344-.896-.896-1.344-2.016-1.344-3.36 0-1.376.448-2.48 1.344-3.312.896-.864 2-1.296 3.312-1.296 1.312 0 2.416.432 3.312 1.296.896.832 1.344 1.936 1.344 3.312 0 1.344-.448 2.464-1.344 3.36-.896.896-2 1.344-3.312 1.344z" fill="#131313"/></svg>